<svg version="1.1" id="b8075969-ef49-4240-a25e-f088236f2735" xmlns="http://www.w3.org/2000/svg" x="0" y="0" viewBox="0 0 933.3 629.3" xml:space="preserve"><style>.st0{fill:#f2f2f2}.st1{fill-rule:evenodd;clip-rule:evenodd;fill:#3f3d56}.st4{fill:none;stroke:#3f3d56;stroke-width:2;stroke-miterlimit:10}.st5{fill:#3f3d56}.st6{fill:#4c51bf}.st7{opacity:.1;enable-background:new}.st8{fill:#2f2e41}.st9{fill:#ffb9b9}.st11,.st13{enable-background:new}.st11{fill:none;stroke:#000;stroke-width:2;stroke-miterlimit:10;opacity:.2}.st13{opacity:.3}</style><circle class="st0" cx="603.5" cy="111.1" r="32"/><path transform="rotate(-58.54 363.328 313.823)" class="st0" d="M191.8-7.2h343v642h-343z"/><path class="st1" d="M727.5 445.1l20.3-50.9h-81.1l30.4-81.5H595.7l-66 186.5-65.9-186.5H362.4l30.4 81.5h-81.1l20.2 50.9h81.2l10.1 20.3h-81.1l20.3 51h81.1l40.6 112h91.3l40.6-112h81.1l20.3-51h-81.2l10.2-20.3z"/><circle cx="798.1" cy="464.1" r="11.7" fill="#ff6584"/><path class="st4" d="M890.6 591.7V458.2"/><circle class="st5" cx="890.6" cy="458.2" r="18.9"/><path class="st5" d="M853.4 533c-27.3 41.8-19.8 95-19.8 95s51.7-14.6 79-56.5 19.8-95 19.8-95-51.7 14.6-79 56.5z"/><path class="st6" d="M833.5 627.5s-.7-.1-1.9-.4c-1-.2-2.3-.5-4-.9-14.7-3.5-53.6-15.1-79.1-45.8-31.8-38.4-30.5-92.1-30.5-92.1s48.7 7.9 80.9 42.4c1.4 1.5 2.7 3 4.1 4.6 27.7 33.5 30.3 78.5 30.5 89.6v2.6z"/><path class="st4" d="M813.8 533c27.3 41.8 19.8 95 19.8 95s-51.7-14.6-79-56.5-19.8-95-19.8-95 51.7 14.6 79 56.5z"/><path class="st7" d="M833.4 625c-.7.9-1.4 1.6-1.9 2.2-1.2 1.3-1.8 2-1.8 2s-.8-1-2.1-2.9c-7.4-10.3-31.1-46.8-29.2-89 .1-2.2.3-4.4.5-6.6 1.4 1.5 2.7 3 4.1 4.6 27.7 33.5 30.2 78.5 30.4 89.7z"/><path class="st6" d="M873.9 540.4c-2.2 49.9-39.2 88.8-39.2 88.8s-33.5-42-31.4-91.9 39.2-88.8 39.2-88.8 33.5 42 31.4 91.9z"/><path class="st4" d="M834.7 627.8l8.1-177.3M46.5 628h846"/><circle class="st6" cx="237.2" cy="369.1" r="42.7"/><circle class="st6" cx="164.5" cy="469.6" r="42.7"/><circle transform="scale(.99995) rotate(-88.093 75.14 549.986)" class="st6" cx="75.1" cy="550" r="42.7"/><path class="st4" d="M75.1 627.2v-77.5"/><circle class="st5" cx="75.1" cy="549.7" r="11"/><path class="st5" d="M75.1 597.5s-1.6-33.7-33.7-29.8"/><path class="st4" d="M237.2 627.8V369.2"/><circle class="st5" cx="237.2" cy="369.1" r="11"/><circle class="st5" cx="203.5" cy="556.2" r="11"/><path class="st5" d="M237.2 425.1s-1.6-33.7-33.7-29.8M237.2 520.6s-1.6-33.7-33.7-29.8"/><path class="st4" d="M237.2 624.8s7-65.5-33.7-68.6"/><circle class="st5" cx="270.9" cy="556.2" r="11"/><path class="st4" d="M237.2 624.8s-7-65.5 33.7-68.6"/><circle class="st5" cx="271.5" cy="453.4" r="11"/><path class="st4" d="M237.9 518.5s-7-62 33.7-65.1M164.6 627.4V469.6"/><circle class="st5" cx="164.6" cy="469.6" r="11"/><path class="st5" d="M164.6 514.2s-1.6-33.7-33.7-29.8"/><path class="st4" d="M164.6 624.4s7-64.8-33.7-67.9"/><circle class="st5" cx="130.9" cy="556.5" r="11"/><circle class="st0" cx="766.6" cy="369.6" r="18"/><path class="st7" d="M565 501c-23 10.4-52.5 9.7-52.5 9.7h-32v-6.1c13-3.6 31.1-5.9 51-5.9 11.2-.1 22.4.7 33.5 2.3z"/><path class="st7" d="M603.5 518.7c0 11.1-32.2 20-72 20s-72-8.9-72-20c0-5.5 8-10.5 21-14.1v6.1h32s29.6.7 52.5-9.7c22.9 3.3 38.5 10 38.5 17.7z"/><path class="st8" d="M510 394.1h30.6v30.7H510z"/><path class="st9" d="M521.4 415.8s2.5 8.9-1.9 9.5c-2.8.4-5.4 1.5-7.6 3.2l8.2 10.8h15.2l9.5-9.5s-12.7-9.5-10.1-15.2-13.3 1.2-13.3 1.2z"/><path class="st7" d="M521.4 415.8s2.5 8.9-1.9 9.5c-2.8.4-5.4 1.5-7.6 3.2l8.2 10.8h15.2l9.5-9.5s-12.7-9.5-10.1-15.2-13.3 1.2-13.3 1.2z"/><path class="st9" d="M525.2 526.1l14.6 5.1 10.2.6-.7-8.8-20.9-6.2z"/><path class="st8" d="M543.9 524.2s0 8.9 1.3 8.9 18.4-1.9 23.5 0c5.1 1.9 12.7-5.1 8.9-8.9-3.8-3.8-10-9.5-13.9-8.2s-19.7 4.4-19.7 4.4l-.1 3.8zM497.3 516s-7.6 15.2-2.5 16.5c5.1 1.3 10.8-.6 11.4-1.3.6-.6 9.5-3.2 10.8-1.9 1.3 1.3 1.3-5.1 1.3-5.1l-21-8.2zM503.7 495.1s-12 16.5-3.2 20.9c8.9 4.4 51.3 4.4 54.5 0 3.2-4.4 4.4-18.4 0-19.7s-51.3-1.2-51.3-1.2z"/><path d="M503.7 495.1s-12 16.5-3.2 20.9c8.9 4.4 51.3 4.4 54.5 0 3.2-4.4 4.4-18.4 0-19.7s-51.3-1.2-51.3-1.2z" opacity=".2"/><circle class="st9" cx="526.5" cy="405.7" r="14.6"/><path class="st6" d="M503.7 428.5l12.7-2.5s3.2 10.1 13.3 8.2 12.7-8.2 12.7-8.2 7.6 3.2 8.2 3.2 8.9 3.2 8.9 5.1-9.5 20.9-9.5 20.9l1.3 34.2-46.9-1.3 3.2-33.6-3.9-26z"/><path class="st9" d="M496.7 445s-3.8 33.6-1.3 36.1 12.7 9.5 12.7 9.5V483l-5.1-9.5 5.1-22.2-11.4-6.3zM562.3 444s-2.2 34.5-2.2 35.8-5.7 5.7-7.6 5.7-3.2-3.2-3.2-3.2l4.4-5.1-3.2-26 11.8-7.2z"/><path class="st8" d="M556.3 492.5s28.5-15.8 29.2 0-14.6 22.2-14.6 22.2-39.3 11.8-40.9 7.5-4.8-11.3-2.2-11.9 5.7-1.9 7-.6 17.1-9.5 17.1-9.5l4.4-7.7z"/><path class="st11" d="M569.6 490.6s-5.7 2.5-7.6 4.4-10.1 5.1-10.1 5.1"/><path class="st6" d="M507.5 429.8l-3.8-1.3s-13.9 14.6-9.5 18.4 7 5.1 8.2 6.3 7.6 1.9 7.6 1.9l-2.5-25.3zM553.8 432.9l5.7 1.3s4.4 9.5 5.7 10.8-1.9.6-3.8 3.2-3.8 7-7.6 7-8.9-6.3-8.9-6.3l8.9-16z"/><path class="st8" d="M505 498.2s-24.1-17.1-32.3-4.4 35.5 29.8 41.8 32.3 12 5.1 12 5.1 5.7-13.9 5.7-16.5c0-2.5-4.4-2.5-5.7-2.5s-7-1.3-8.2-3.2-13.3-10.8-13.3-10.8z"/><path class="st11" d="M491.6 493.8s6.3 5.1 12 6.3 7.6 4.4 7.6 4.4"/><path d="M500.6 470l.5 26.8c0 1.8 1.6 3.3 3.4 3.3l49.9-.6c1.8 0 3.2-1.4 3.3-3.2l1.5-26.3c.1-1.9-1.3-3.4-3.2-3.5h-52.2c-1.7 0-3.2 1.6-3.2 3.5 0-.1 0-.1 0 0z" fill="#575a89"/><path class="st8" d="M494.8 428.7c1.4-3 3.2-5.8 4.1-9 1-3.8.6-7.8.5-11.8-.2-3.5.1-7 .9-10.4.8-3.4 2.6-6.5 5.1-9 6.6-5.9 18.8-6.4 26.9-3.9 3.2 1 6.6 2.8 7.4 6.1l.3 1.5c.7 2.4 3.1 3.9 4 6.3 1.2 3-.6 6.3-.9 9.6-.3 3.8 1.6 7.3 3.4 10.7 1.1 2 2.2 4.1 2.1 6.3-.1 1.2-.5 2.4-1.1 3.5-2.4 3.9-6.6 6.3-11.2 6.4-1.5.1-2.9-.2-4.2-1-2-1.4-2.6-4.1-2.1-6.5s1.6-4.5 2.6-6.7c.3-.7.5-1.4.8-2.1 6.8-3.8 9.3-12.5 5.5-19.3-3.8-6.8-12.5-9.3-19.3-5.5-6.8 3.8-9.3 12.5-5.5 19.3 2.1 3.7 5.7 6.3 9.9 7.1.7 3.6.4 7.3-.9 10.7-1.2 2.8-2.7 5.4-4.5 7.8-.7 1.2-1.7 2.3-2.9 3.2-.8.5-1.6.8-2.4 1-3.6 1.2-7.4 2.1-11.1 1.6s-7.4-2.8-8.7-6.3c-1-3.2-.1-6.6 1.3-9.6z"/><ellipse class="st8" cx="525.8" cy="397.5" rx="15.5" ry="8.8"/><circle class="st0" cx="65" cy="433.5" r="18"/><g class="st13"><path class="st1" d="M76.4 432.1l1.2-2.9h-4.7l1.8-4.7h-5.9L65 435.2l-3.8-10.7h-5.8l1.7 4.7h-4.6l1.1 2.9h4.7l.6 1.2h-4.7l1.2 2.9H60l2.4 6.4h5.2l2.4-6.4h4.7l1.1-2.9h-4.7l.6-1.2z"/></g><g class="st13"><path class="st1" d="M614.9 109.7l1.1-3h-4.6l1.7-4.7h-5.8l-3.8 10.8-3.8-10.8h-5.9l1.8 4.7h-4.7l1.2 3h4.7l.6 1.1h-4.7l1.1 3h4.7l2.4 6.4h5.2l2.3-6.4h4.7l1.2-3h-4.7l.6-1.1z"/></g><g class="st13"><path class="st1" d="M778 368.1l1.2-2.9h-4.7l1.7-4.7h-5.8l-3.8 10.7-3.8-10.7H757l1.7 4.7H754l1.2 2.9h4.7l.6 1.2h-4.7l1.2 2.9h4.6l2.4 6.5h5.2l2.4-6.5h4.6l1.2-2.9h-4.7l.6-1.2z"/></g></svg>